<svg xmlns="http://www.w3.org/2000/svg" xmlns:xlink="http://www.w3.org/1999/xlink" width="333" zoomAndPan="magnify" viewBox="0 0 249.75 177.750001" height="237" preserveAspectRatio="xMidYMid meet" version="1.0"><defs><g/><clipPath id="d16f55e2b9"><path d="M 45.355469 0.015625 L 67.777344 0.015625 L 67.777344 94.3125 L 45.355469 94.3125 Z M 45.355469 0.015625 " clip-rule="nonzero"/></clipPath><clipPath id="63d7982eb5"><path d="M 55.414062 44.050781 L 85.433594 44.050781 L 85.433594 94.316406 L 55.414062 94.316406 Z M 55.414062 44.050781 " clip-rule="nonzero"/></clipPath><clipPath id="75d6a84ebe"><path d="M 74.226562 26.328125 L 113.214844 26.328125 L 113.214844 94.242188 L 74.226562 94.242188 Z M 74.226562 26.328125 " clip-rule="nonzero"/></clipPath><clipPath id="dca33df5e4"><path d="M 93.792969 62.355469 L 173.433594 62.355469 L 173.433594 94.324219 L 93.792969 94.324219 Z M 93.792969 62.355469 " clip-rule="nonzero"/></clipPath><clipPath id="b2f1b43687"><path d="M 126.441406 47.164062 L 193.421875 47.164062 L 193.421875 94.324219 L 126.441406 94.324219 Z M 126.441406 47.164062 " clip-rule="nonzero"/></clipPath><clipPath id="c587ddc9f8"><path d="M 136.503906 78.339844 L 203.484375 78.339844 L 203.484375 94.0625 L 136.503906 94.0625 Z M 136.503906 78.339844 " clip-rule="nonzero"/></clipPath></defs><g fill="#4f4135" fill-opacity="1"><g transform="translate(46.090649, 118.468711)"><g><path d="M 22.359375 -17.484375 C 21.835938 -17.421875 21.390625 -17.300781 21.015625 -17.125 C 20.640625 -16.945312 20.453125 -16.628906 20.453125 -16.171875 L 20.453125 -1.4375 C 20.453125 -0.976562 20.640625 -0.660156 21.015625 -0.484375 C 21.390625 -0.304688 21.835938 -0.1875 22.359375 -0.125 L 22.359375 0 L 15.09375 0 L 15.09375 -0.125 C 15.613281 -0.1875 16.0625 -0.304688 16.4375 -0.484375 C 16.8125 -0.660156 17 -0.976562 17 -1.4375 L 17 -16.296875 L 9.984375 0.28125 L 2.796875 -14.09375 L 2.796875 -4.453125 C 2.796875 -3.304688 2.882812 -2.425781 3.0625 -1.8125 C 3.238281 -1.207031 3.472656 -0.785156 3.765625 -0.546875 C 4.054688 -0.316406 4.367188 -0.175781 4.703125 -0.125 L 4.703125 0 L 0.375 0 L 0.375 -0.125 C 0.726562 -0.175781 1.046875 -0.273438 1.328125 -0.421875 C 1.617188 -0.578125 1.851562 -0.914062 2.03125 -1.4375 C 2.207031 -1.96875 2.296875 -2.804688 2.296875 -3.953125 L 2.296875 -15.09375 C 2.054688 -15.582031 1.789062 -16.019531 1.5 -16.40625 C 1.207031 -16.800781 0.789062 -17.203125 0.25 -17.609375 L 4.671875 -17.609375 L 11.375 -4.25 L 17 -17.609375 L 22.359375 -17.609375 Z M 22.359375 -17.484375 "/></g></g></g><g fill="#4f4135" fill-opacity="1"><g transform="translate(69.763797, 118.468711)"><g><path d="M 17.890625 -3.171875 C 18.191406 -2.398438 18.457031 -1.800781 18.6875 -1.375 C 18.925781 -0.945312 19.175781 -0.640625 19.4375 -0.453125 C 19.695312 -0.265625 20.007812 -0.144531 20.375 -0.09375 L 20.375 0 L 12.421875 0 L 12.421875 -0.09375 C 13.015625 -0.144531 13.503906 -0.257812 13.890625 -0.4375 C 14.273438 -0.613281 14.515625 -0.898438 14.609375 -1.296875 C 14.710938 -1.703125 14.613281 -2.273438 14.3125 -3.015625 L 13.8125 -4.28125 L 4.203125 -4.28125 L 3.640625 -3.015625 C 3.328125 -2.296875 3.210938 -1.742188 3.296875 -1.359375 C 3.378906 -0.972656 3.585938 -0.691406 3.921875 -0.515625 C 4.253906 -0.335938 4.65625 -0.195312 5.125 -0.09375 L 5.125 0 L 0.5 0 L 0.5 -0.09375 C 0.851562 -0.195312 1.164062 -0.34375 1.4375 -0.53125 C 1.71875 -0.71875 1.988281 -1.003906 2.25 -1.390625 C 2.507812 -1.773438 2.789062 -2.328125 3.09375 -3.046875 L 8.609375 -15.75 L 8.546875 -16.484375 L 9.03125 -16.75 L 12 -18.34375 C 12 -18.269531 12.023438 -18.117188 12.078125 -17.890625 C 12.140625 -17.671875 12.304688 -17.234375 12.578125 -16.578125 Z M 4.375 -4.734375 L 13.640625 -4.734375 L 9.1875 -15.828125 Z M 4.375 -4.734375 "/></g></g></g><g fill="#4f4135" fill-opacity="1"><g transform="translate(91.575319, 118.468711)"><g><path d="M 17.5625 -17.609375 L 15.953125 -12.421875 L 15.84375 -12.421875 C 15.96875 -13.566406 15.851562 -14.488281 15.5 -15.1875 C 15.144531 -15.894531 14.613281 -16.410156 13.90625 -16.734375 C 13.207031 -17.066406 12.390625 -17.234375 11.453125 -17.234375 L 10.484375 -17.234375 L 10.484375 -1.6875 C 10.484375 -1.113281 10.691406 -0.722656 11.109375 -0.515625 C 11.535156 -0.316406 12.132812 -0.1875 12.90625 -0.125 L 12.90625 0 L 4.625 0 L 4.625 -0.125 C 5.394531 -0.1875 5.988281 -0.316406 6.40625 -0.515625 C 6.832031 -0.722656 7.046875 -1.113281 7.046875 -1.6875 L 7.046875 -17.234375 C 5.804688 -17.234375 4.773438 -17.0625 3.953125 -16.71875 C 3.140625 -16.382812 2.457031 -15.867188 1.90625 -15.171875 C 1.351562 -14.484375 0.835938 -13.566406 0.359375 -12.421875 L 0.25 -12.421875 L 1.078125 -17.609375 Z M 17.5625 -17.609375 "/></g></g></g><g fill="#4f4135" fill-opacity="1"><g transform="translate(110.317693, 118.468711)"><g><path d="M 15.953125 -5.359375 L 16.046875 -5.3125 L 14.71875 0 L 14.5625 0.546875 L 13.703125 0 L 0.375 0 L 0.375 -0.125 C 0.894531 -0.3125 1.34375 -0.546875 1.71875 -0.828125 C 2.101562 -1.117188 2.296875 -1.488281 2.296875 -1.9375 L 2.296875 -16.171875 C 2.296875 -16.628906 2.101562 -16.945312 1.71875 -17.125 C 1.34375 -17.300781 0.894531 -17.421875 0.375 -17.484375 L 0.375 -17.609375 L 14.21875 -17.609375 L 15.140625 -13.1875 L 15.046875 -13.125 C 14.410156 -14.070312 13.832031 -14.847656 13.3125 -15.453125 C 12.789062 -16.054688 12.195312 -16.5 11.53125 -16.78125 C 10.875 -17.0625 10 -17.203125 8.90625 -17.203125 L 5.734375 -17.203125 L 5.734375 -9 L 7.84375 -9 C 8.882812 -9 9.726562 -9.085938 10.375 -9.265625 C 11.019531 -9.441406 11.523438 -9.75 11.890625 -10.1875 C 12.265625 -10.625 12.550781 -11.226562 12.75 -12 L 12.75 -5.640625 C 12.550781 -6.410156 12.265625 -7.007812 11.890625 -7.4375 C 11.523438 -7.863281 11.019531 -8.164062 10.375 -8.34375 C 9.726562 -8.519531 8.882812 -8.609375 7.84375 -8.609375 L 5.734375 -8.609375 L 5.734375 -0.40625 L 9.0625 -0.40625 C 10.144531 -0.40625 11.070312 -0.582031 11.84375 -0.9375 C 12.613281 -1.300781 13.316406 -1.847656 13.953125 -2.578125 C 14.597656 -3.304688 15.265625 -4.234375 15.953125 -5.359375 Z M 15.953125 -5.359375 "/></g></g></g><g fill="#4f4135" fill-opacity="1"><g transform="translate(127.676433, 118.468711)"><g><path d="M 15.09375 -3.328125 C 15.59375 -2.648438 16.039062 -2.113281 16.4375 -1.71875 C 16.832031 -1.320312 17.222656 -1.003906 17.609375 -0.765625 C 17.992188 -0.523438 18.40625 -0.296875 18.84375 -0.078125 L 18.84375 0 L 13.40625 0 L 13.40625 -0.421875 L 8.671875 -7.09375 L 5.734375 -7.09375 L 5.734375 -1.4375 C 5.734375 -0.976562 5.921875 -0.660156 6.296875 -0.484375 C 6.679688 -0.304688 7.128906 -0.1875 7.640625 -0.125 L 7.640625 0 L 0.375 0 L 0.375 -0.125 C 0.894531 -0.1875 1.34375 -0.304688 1.71875 -0.484375 C 2.101562 -0.660156 2.296875 -0.976562 2.296875 -1.4375 L 2.296875 -16.171875 C 2.296875 -16.628906 2.101562 -16.945312 1.71875 -17.125 C 1.34375 -17.300781 0.894531 -17.421875 0.375 -17.484375 L 0.375 -17.609375 L 9.859375 -17.609375 C 12.109375 -17.609375 13.851562 -17.222656 15.09375 -16.453125 C 16.332031 -15.691406 16.953125 -14.492188 16.953125 -12.859375 C 16.953125 -11.597656 16.515625 -10.492188 15.640625 -9.546875 C 14.773438 -8.597656 13.578125 -7.914062 12.046875 -7.5 Z M 5.734375 -17.15625 L 5.734375 -8.078125 C 7.078125 -7.691406 8.410156 -7.5 9.734375 -7.5 C 10.585938 -7.5 11.296875 -7.613281 11.859375 -7.84375 C 12.421875 -8.082031 12.84375 -8.515625 13.125 -9.140625 C 13.414062 -9.773438 13.5625 -10.671875 13.5625 -11.828125 C 13.5625 -12.492188 13.5 -13.140625 13.375 -13.765625 C 13.25 -14.398438 13.007812 -14.972656 12.65625 -15.484375 C 12.300781 -15.992188 11.785156 -16.398438 11.109375 -16.703125 C 10.441406 -17.003906 9.570312 -17.15625 8.5 -17.15625 Z M 5.734375 -17.15625 "/></g></g></g><g fill="#4f4135" fill-opacity="1"><g transform="translate(147.198666, 118.468711)"><g><path d="M 0.375 0 L 0.375 -0.125 C 0.894531 -0.1875 1.34375 -0.304688 1.71875 -0.484375 C 2.101562 -0.660156 2.296875 -0.976562 2.296875 -1.4375 L 2.296875 -16.171875 C 2.296875 -16.628906 2.101562 -16.945312 1.71875 -17.125 C 1.34375 -17.300781 0.894531 -17.421875 0.375 -17.484375 L 0.375 -17.609375 L 7.640625 -17.609375 L 7.640625 -17.484375 C 7.128906 -17.421875 6.679688 -17.300781 6.296875 -17.125 C 5.921875 -16.945312 5.734375 -16.628906 5.734375 -16.171875 L 5.734375 -1.4375 C 5.734375 -0.976562 5.921875 -0.660156 6.296875 -0.484375 C 6.679688 -0.304688 7.128906 -0.1875 7.640625 -0.125 L 7.640625 0 Z M 0.375 0 "/></g></g></g><g fill="#4f4135" fill-opacity="1"><g transform="translate(156.154972, 118.468711)"><g><path d="M 17.890625 -3.171875 C 18.191406 -2.398438 18.457031 -1.800781 18.6875 -1.375 C 18.925781 -0.945312 19.175781 -0.640625 19.4375 -0.453125 C 19.695312 -0.265625 20.007812 -0.144531 20.375 -0.09375 L 20.375 0 L 12.421875 0 L 12.421875 -0.09375 C 13.015625 -0.144531 13.503906 -0.257812 13.890625 -0.4375 C 14.273438 -0.613281 14.515625 -0.898438 14.609375 -1.296875 C 14.710938 -1.703125 14.613281 -2.273438 14.3125 -3.015625 L 13.8125 -4.28125 L 4.203125 -4.28125 L 3.640625 -3.015625 C 3.328125 -2.296875 3.210938 -1.742188 3.296875 -1.359375 C 3.378906 -0.972656 3.585938 -0.691406 3.921875 -0.515625 C 4.253906 -0.335938 4.65625 -0.195312 5.125 -0.09375 L 5.125 0 L 0.5 0 L 0.5 -0.09375 C 0.851562 -0.195312 1.164062 -0.34375 1.4375 -0.53125 C 1.71875 -0.71875 1.988281 -1.003906 2.25 -1.390625 C 2.507812 -1.773438 2.789062 -2.328125 3.09375 -3.046875 L 8.609375 -15.75 L 8.546875 -16.484375 L 9.03125 -16.75 L 12 -18.34375 C 12 -18.269531 12.023438 -18.117188 12.078125 -17.890625 C 12.140625 -17.671875 12.304688 -17.234375 12.578125 -16.578125 Z M 4.375 -4.734375 L 13.640625 -4.734375 L 9.1875 -15.828125 Z M 4.375 -4.734375 "/></g></g></g><g fill="#4f4135" fill-opacity="1"><g transform="translate(177.966494, 118.468711)"><g><path d="M 0.375 0 L 0.375 -0.125 C 0.894531 -0.1875 1.34375 -0.304688 1.71875 -0.484375 C 2.101562 -0.660156 2.296875 -0.976562 2.296875 -1.4375 L 2.296875 -16.171875 C 2.296875 -16.628906 2.101562 -16.945312 1.71875 -17.125 C 1.34375 -17.300781 0.894531 -17.421875 0.375 -17.484375 L 0.375 -17.609375 L 7.640625 -17.609375 L 7.640625 -17.484375 C 7.128906 -17.421875 6.679688 -17.300781 6.296875 -17.125 C 5.921875 -16.945312 5.734375 -16.628906 5.734375 -16.171875 L 5.734375 -1.4375 C 5.734375 -0.976562 5.921875 -0.660156 6.296875 -0.484375 C 6.679688 -0.304688 7.128906 -0.1875 7.640625 -0.125 L 7.640625 0 Z M 0.375 0 "/></g></g></g><g fill="#4f4135" fill-opacity="1"><g transform="translate(186.9228, 118.468711)"><g><path d="M 8.859375 -10.515625 C 10.097656 -10.234375 11.109375 -9.878906 11.890625 -9.453125 C 12.671875 -9.035156 13.269531 -8.578125 13.6875 -8.078125 C 14.101562 -7.578125 14.390625 -7.066406 14.546875 -6.546875 C 14.710938 -6.035156 14.796875 -5.546875 14.796875 -5.078125 C 14.796875 -4.054688 14.515625 -3.132812 13.953125 -2.3125 C 13.398438 -1.488281 12.601562 -0.835938 11.5625 -0.359375 C 10.53125 0.117188 9.273438 0.359375 7.796875 0.359375 C 6.273438 0.359375 4.929688 0.128906 3.765625 -0.328125 C 2.609375 -0.796875 1.6875 -1.359375 1 -2.015625 L 3.328125 -5.6875 C 3.234375 -4.8125 3.332031 -4.023438 3.625 -3.328125 C 3.925781 -2.640625 4.34375 -2.050781 4.875 -1.5625 C 5.414062 -1.070312 6.03125 -0.695312 6.71875 -0.4375 C 7.40625 -0.175781 8.101562 -0.046875 8.8125 -0.046875 C 9.539062 -0.046875 10.132812 -0.160156 10.59375 -0.390625 C 11.0625 -0.628906 11.421875 -0.929688 11.671875 -1.296875 C 11.921875 -1.660156 12.097656 -2.039062 12.203125 -2.4375 C 12.304688 -2.84375 12.359375 -3.210938 12.359375 -3.546875 C 12.359375 -4.296875 12.175781 -4.882812 11.8125 -5.3125 C 11.445312 -5.75 10.914062 -6.097656 10.21875 -6.359375 C 9.53125 -6.628906 8.679688 -6.882812 7.671875 -7.125 C 6.046875 -7.507812 4.785156 -8.019531 3.890625 -8.65625 C 2.992188 -9.289062 2.363281 -9.984375 2 -10.734375 C 1.632812 -11.492188 1.453125 -12.234375 1.453125 -12.953125 C 1.453125 -13.992188 1.726562 -14.882812 2.28125 -15.625 C 2.84375 -16.375 3.617188 -16.953125 4.609375 -17.359375 C 5.609375 -17.765625 6.789062 -17.96875 8.15625 -17.96875 C 9.613281 -17.96875 10.863281 -17.742188 11.90625 -17.296875 C 12.957031 -16.847656 13.816406 -16.304688 14.484375 -15.671875 L 12.09375 -12 C 12.21875 -12.851562 12.148438 -13.625 11.890625 -14.3125 C 11.628906 -15 11.242188 -15.582031 10.734375 -16.0625 C 10.234375 -16.550781 9.648438 -16.925781 8.984375 -17.1875 C 8.328125 -17.445312 7.65625 -17.578125 6.96875 -17.578125 C 6.175781 -17.578125 5.554688 -17.421875 5.109375 -17.109375 C 4.671875 -16.804688 4.367188 -16.421875 4.203125 -15.953125 C 4.035156 -15.484375 3.953125 -15.015625 3.953125 -14.546875 C 3.953125 -13.671875 4.175781 -12.972656 4.625 -12.453125 C 5.082031 -11.929688 5.679688 -11.523438 6.421875 -11.234375 C 7.171875 -10.953125 7.984375 -10.710938 8.859375 -10.515625 Z M 8.859375 -10.515625 "/></g></g></g><g fill="#4f4135" fill-opacity="1"><g transform="translate(82.355017, 141.606101)"><g><path d="M 8.859375 -10.515625 C 10.097656 -10.234375 11.109375 -9.878906 11.890625 -9.453125 C 12.671875 -9.035156 13.269531 -8.578125 13.6875 -8.078125 C 14.101562 -7.578125 14.390625 -7.066406 14.546875 -6.546875 C 14.710938 -6.035156 14.796875 -5.546875 14.796875 -5.078125 C 14.796875 -4.054688 14.515625 -3.132812 13.953125 -2.3125 C 13.398438 -1.488281 12.601562 -0.835938 11.5625 -0.359375 C 10.53125 0.117188 9.273438 0.359375 7.796875 0.359375 C 6.273438 0.359375 4.929688 0.128906 3.765625 -0.328125 C 2.609375 -0.796875 1.6875 -1.359375 1 -2.015625 L 3.328125 -5.6875 C 3.234375 -4.8125 3.332031 -4.023438 3.625 -3.328125 C 3.925781 -2.640625 4.34375 -2.050781 4.875 -1.5625 C 5.414062 -1.070312 6.03125 -0.695312 6.71875 -0.4375 C 7.40625 -0.175781 8.101562 -0.046875 8.8125 -0.046875 C 9.539062 -0.046875 10.132812 -0.160156 10.59375 -0.390625 C 11.0625 -0.628906 11.421875 -0.929688 11.671875 -1.296875 C 11.921875 -1.660156 12.097656 -2.039062 12.203125 -2.4375 C 12.304688 -2.84375 12.359375 -3.210938 12.359375 -3.546875 C 12.359375 -4.296875 12.175781 -4.882812 11.8125 -5.3125 C 11.445312 -5.75 10.914062 -6.097656 10.21875 -6.359375 C 9.53125 -6.628906 8.679688 -6.882812 7.671875 -7.125 C 6.046875 -7.507812 4.785156 -8.019531 3.890625 -8.65625 C 2.992188 -9.289062 2.363281 -9.984375 2 -10.734375 C 1.632812 -11.492188 1.453125 -12.234375 1.453125 -12.953125 C 1.453125 -13.992188 1.726562 -14.882812 2.28125 -15.625 C 2.84375 -16.375 3.617188 -16.953125 4.609375 -17.359375 C 5.609375 -17.765625 6.789062 -17.96875 8.15625 -17.96875 C 9.613281 -17.96875 10.863281 -17.742188 11.90625 -17.296875 C 12.957031 -16.847656 13.816406 -16.304688 14.484375 -15.671875 L 12.09375 -12 C 12.21875 -12.851562 12.148438 -13.625 11.890625 -14.3125 C 11.628906 -15 11.242188 -15.582031 10.734375 -16.0625 C 10.234375 -16.550781 9.648438 -16.925781 8.984375 -17.1875 C 8.328125 -17.445312 7.65625 -17.578125 6.96875 -17.578125 C 6.175781 -17.578125 5.554688 -17.421875 5.109375 -17.109375 C 4.671875 -16.804688 4.367188 -16.421875 4.203125 -15.953125 C 4.035156 -15.484375 3.953125 -15.015625 3.953125 -14.546875 C 3.953125 -13.671875 4.175781 -12.972656 4.625 -12.453125 C 5.082031 -11.929688 5.679688 -11.523438 6.421875 -11.234375 C 7.171875 -10.953125 7.984375 -10.710938 8.859375 -10.515625 Z M 8.859375 -10.515625 "/></g></g></g><g fill="#4f4135" fill-opacity="1"><g transform="translate(99.084832, 141.606101)"><g><path d="M 0.375 0 L 0.375 -0.125 C 0.894531 -0.1875 1.34375 -0.304688 1.71875 -0.484375 C 2.101562 -0.660156 2.296875 -0.976562 2.296875 -1.4375 L 2.296875 -16.171875 C 2.296875 -16.628906 2.101562 -16.945312 1.71875 -17.125 C 1.34375 -17.300781 0.894531 -17.421875 0.375 -17.484375 L 0.375 -17.609375 L 7.640625 -17.609375 L 7.640625 -17.484375 C 7.128906 -17.421875 6.679688 -17.300781 6.296875 -17.125 C 5.921875 -16.945312 5.734375 -16.628906 5.734375 -16.171875 L 5.734375 -1.4375 C 5.734375 -0.976562 5.921875 -0.660156 6.296875 -0.484375 C 6.679688 -0.304688 7.128906 -0.1875 7.640625 -0.125 L 7.640625 0 Z M 0.375 0 "/></g></g></g><g fill="#4f4135" fill-opacity="1"><g transform="translate(108.041138, 141.606101)"><g><path d="M 15.390625 -5.1875 L 15.5 -5.125 L 14.1875 0 L 14.03125 0.546875 L 13.1875 0 L 0.375 0 L 0.375 -0.125 C 0.894531 -0.3125 1.34375 -0.640625 1.71875 -1.109375 C 2.101562 -1.578125 2.296875 -2.144531 2.296875 -2.8125 L 2.296875 -16.171875 C 2.296875 -16.628906 2.101562 -16.945312 1.71875 -17.125 C 1.34375 -17.300781 0.894531 -17.421875 0.375 -17.484375 L 0.375 -17.609375 L 7.90625 -17.609375 L 7.90625 -17.484375 C 7.257812 -17.421875 6.734375 -17.300781 6.328125 -17.125 C 5.929688 -16.945312 5.734375 -16.628906 5.734375 -16.171875 L 5.734375 -0.40625 L 7.671875 -0.40625 C 8.722656 -0.40625 9.617188 -0.515625 10.359375 -0.734375 C 11.097656 -0.953125 11.738281 -1.257812 12.28125 -1.65625 C 12.832031 -2.0625 13.347656 -2.5625 13.828125 -3.15625 C 14.304688 -3.75 14.828125 -4.425781 15.390625 -5.1875 Z M 15.390625 -5.1875 "/></g></g></g><g fill="#4f4135" fill-opacity="1"><g transform="translate(124.846419, 141.606101)"><g><path d="M 14.671875 -17.609375 L 19.296875 -17.609375 L 19.296875 -17.515625 C 18.941406 -17.410156 18.625 -17.265625 18.34375 -17.078125 C 18.070312 -16.890625 17.8125 -16.601562 17.5625 -16.21875 C 17.3125 -15.832031 17.023438 -15.28125 16.703125 -14.5625 L 10.796875 -0.859375 L 8.171875 0.953125 L 8.25 0.421875 L 1.734375 -15.671875 C 1.566406 -16.109375 1.363281 -16.5 1.125 -16.84375 C 0.894531 -17.1875 0.6875 -17.441406 0.5 -17.609375 L 7.640625 -17.609375 L 7.640625 -17.515625 C 7.054688 -17.460938 6.570312 -17.347656 6.1875 -17.171875 C 5.800781 -16.992188 5.5625 -16.703125 5.46875 -16.296875 C 5.375 -15.898438 5.472656 -15.332031 5.765625 -14.59375 L 10.734375 -2.09375 L 16.15625 -14.59375 C 16.46875 -15.3125 16.582031 -15.863281 16.5 -16.25 C 16.414062 -16.632812 16.207031 -16.914062 15.875 -17.09375 C 15.539062 -17.269531 15.140625 -17.410156 14.671875 -17.515625 Z M 14.671875 -17.609375 "/></g></g></g><g fill="#4f4135" fill-opacity="1"><g transform="translate(145.576188, 141.606101)"><g><path d="M 17.890625 -3.171875 C 18.191406 -2.398438 18.457031 -1.800781 18.6875 -1.375 C 18.925781 -0.945312 19.175781 -0.640625 19.4375 -0.453125 C 19.695312 -0.265625 20.007812 -0.144531 20.375 -0.09375 L 20.375 0 L 12.421875 0 L 12.421875 -0.09375 C 13.015625 -0.144531 13.503906 -0.257812 13.890625 -0.4375 C 14.273438 -0.613281 14.515625 -0.898438 14.609375 -1.296875 C 14.710938 -1.703125 14.613281 -2.273438 14.3125 -3.015625 L 13.8125 -4.28125 L 4.203125 -4.28125 L 3.640625 -3.015625 C 3.328125 -2.296875 3.210938 -1.742188 3.296875 -1.359375 C 3.378906 -0.972656 3.585938 -0.691406 3.921875 -0.515625 C 4.253906 -0.335938 4.65625 -0.195312 5.125 -0.09375 L 5.125 0 L 0.5 0 L 0.5 -0.09375 C 0.851562 -0.195312 1.164062 -0.34375 1.4375 -0.53125 C 1.71875 -0.71875 1.988281 -1.003906 2.25 -1.390625 C 2.507812 -1.773438 2.789062 -2.328125 3.09375 -3.046875 L 8.609375 -15.75 L 8.546875 -16.484375 L 9.03125 -16.75 L 12 -18.34375 C 12 -18.269531 12.023438 -18.117188 12.078125 -17.890625 C 12.140625 -17.671875 12.304688 -17.234375 12.578125 -16.578125 Z M 4.375 -4.734375 L 13.640625 -4.734375 L 9.1875 -15.828125 Z M 4.375 -4.734375 "/></g></g></g><g fill="#4f4135" fill-opacity="1"><g transform="translate(73.952783, 160.356403)"><g/></g></g><g fill="#4f4135" fill-opacity="1"><g transform="translate(80.451065, 160.356403)"><g><path d="M 5.359375 -3.015625 C 5.359375 -2.578125 5.28125 -2.175781 5.125 -1.8125 C 4.957031 -1.4375 4.734375 -1.117188 4.453125 -0.859375 C 4.171875 -0.585938 3.84375 -0.378906 3.46875 -0.234375 C 3.082031 -0.078125 2.675781 0 2.25 0 L 0.671875 0 L 0.671875 -6.046875 L 2.25 -6.046875 C 2.675781 -6.046875 3.082031 -5.972656 3.46875 -5.828125 C 3.84375 -5.671875 4.171875 -5.457031 4.453125 -5.1875 C 4.734375 -4.925781 4.957031 -4.609375 5.125 -4.234375 C 5.28125 -3.867188 5.359375 -3.460938 5.359375 -3.015625 Z M 4.75 -3.015625 C 4.75 -3.703125 4.507812 -4.28125 4.03125 -4.75 C 3.550781 -5.195312 2.960938 -5.421875 2.265625 -5.421875 L 1.296875 -5.421875 L 1.296875 -0.625 L 2.265625 -0.625 C 2.960938 -0.625 3.550781 -0.847656 4.03125 -1.296875 C 4.507812 -1.753906 4.75 -2.328125 4.75 -3.015625 Z M 4.75 -3.015625 "/></g></g></g><g fill="#4f4135" fill-opacity="1"><g transform="translate(90.307928, 160.356403)"><g><path d="M 4.265625 0 L 0.671875 0 L 0.671875 -6.046875 L 4.265625 -6.046875 L 4.265625 -5.46875 L 1.296875 -5.46875 L 1.296875 -3.3125 L 4.171875 -3.3125 L 4.171875 -2.734375 L 1.296875 -2.734375 L 1.296875 -0.578125 L 4.265625 -0.578125 Z M 4.265625 0 "/></g></g></g><g fill="#4f4135" fill-opacity="1"><g transform="translate(99.328546, 160.356403)"><g><path d="M 1.296875 -3 L 2.6875 -3 C 3.039062 -3 3.332031 -3.117188 3.5625 -3.359375 C 3.789062 -3.585938 3.90625 -3.878906 3.90625 -4.234375 C 3.90625 -4.597656 3.796875 -4.890625 3.578125 -5.109375 C 3.359375 -5.335938 3.0625 -5.453125 2.6875 -5.453125 L 1.296875 -5.453125 Z M 4.53125 -4.21875 C 4.53125 -3.695312 4.34375 -3.257812 3.96875 -2.90625 C 3.59375 -2.5625 3.140625 -2.390625 2.609375 -2.390625 L 1.296875 -2.390625 L 1.296875 0 L 0.671875 0 L 0.671875 -6.046875 L 2.609375 -6.046875 C 3.140625 -6.046875 3.59375 -5.875 3.96875 -5.53125 C 4.34375 -5.1875 4.53125 -4.75 4.53125 -4.21875 Z M 4.53125 -4.21875 "/></g></g></g><g fill="#4f4135" fill-opacity="1"><g transform="translate(108.126762, 160.356403)"><g><path d="M 6 -3.046875 C 6 -3.722656 5.753906 -4.304688 5.265625 -4.796875 C 4.773438 -5.273438 4.1875 -5.515625 3.5 -5.515625 C 2.820312 -5.515625 2.238281 -5.273438 1.75 -4.796875 C 1.257812 -4.304688 1.015625 -3.722656 1.015625 -3.046875 C 1.015625 -2.359375 1.257812 -1.769531 1.75 -1.28125 C 2.238281 -0.789062 2.820312 -0.546875 3.5 -0.546875 C 4.1875 -0.546875 4.773438 -0.789062 5.265625 -1.28125 C 5.753906 -1.769531 6 -2.359375 6 -3.046875 Z M 6.609375 -3.046875 C 6.609375 -2.617188 6.53125 -2.210938 6.375 -1.828125 C 6.207031 -1.453125 5.984375 -1.125 5.703125 -0.84375 C 5.421875 -0.5625 5.09375 -0.335938 4.71875 -0.171875 C 4.332031 -0.00390625 3.925781 0.078125 3.5 0.078125 C 3.070312 0.078125 2.671875 -0.00390625 2.296875 -0.171875 C 1.921875 -0.335938 1.59375 -0.5625 1.3125 -0.84375 C 1.03125 -1.125 0.8125 -1.453125 0.65625 -1.828125 C 0.488281 -2.210938 0.40625 -2.617188 0.40625 -3.046875 C 0.40625 -3.472656 0.488281 -3.875 0.65625 -4.25 C 0.8125 -4.625 1.03125 -4.953125 1.3125 -5.234375 C 1.59375 -5.515625 1.921875 -5.738281 2.296875 -5.90625 C 2.671875 -6.0625 3.070312 -6.140625 3.5 -6.140625 C 3.925781 -6.140625 4.332031 -6.0625 4.71875 -5.90625 C 5.09375 -5.738281 5.421875 -5.515625 5.703125 -5.234375 C 5.984375 -4.953125 6.207031 -4.625 6.375 -4.25 C 6.53125 -3.875 6.609375 -3.472656 6.609375 -3.046875 Z M 4.734375 -7.9375 L 3.75 -6.671875 L 3.25 -6.671875 L 3.96875 -7.9375 Z M 4.734375 -7.9375 "/></g></g></g><g fill="#4f4135" fill-opacity="1"><g transform="translate(119.237968, 160.356403)"><g><path d="M 2.34375 -2.859375 C 1.113281 -3.140625 0.5 -3.664062 0.5 -4.4375 C 0.5 -5.007812 0.695312 -5.4375 1.09375 -5.71875 C 1.488281 -6 1.953125 -6.140625 2.484375 -6.140625 C 3.671875 -6.140625 4.375 -5.695312 4.59375 -4.8125 L 3.90625 -4.8125 C 3.789062 -5.332031 3.316406 -5.59375 2.484375 -5.59375 C 1.910156 -5.59375 1.503906 -5.421875 1.265625 -5.078125 C 1.179688 -4.953125 1.140625 -4.789062 1.140625 -4.59375 C 1.140625 -4.21875 1.34375 -3.929688 1.75 -3.734375 C 1.9375 -3.628906 2.335938 -3.5 2.953125 -3.34375 C 3.566406 -3.1875 4.015625 -3.007812 4.296875 -2.8125 C 4.679688 -2.539062 4.875 -2.15625 4.875 -1.65625 C 4.875 -1.050781 4.632812 -0.59375 4.15625 -0.28125 C 3.75 -0.0195312 3.25 0.109375 2.65625 0.109375 C 1.320312 0.109375 0.546875 -0.394531 0.328125 -1.40625 L 1.0625 -1.40625 C 1.175781 -0.769531 1.707031 -0.453125 2.65625 -0.453125 C 3.332031 -0.453125 3.804688 -0.640625 4.078125 -1.015625 C 4.179688 -1.160156 4.234375 -1.363281 4.234375 -1.625 C 4.234375 -1.863281 4.132812 -2.066406 3.9375 -2.234375 C 3.65625 -2.453125 3.125 -2.660156 2.34375 -2.859375 Z M 2.34375 -2.859375 "/></g></g></g><g fill="#4f4135" fill-opacity="1"><g transform="translate(128.436514, 160.356403)"><g><path d="M 1.296875 0 L 0.671875 0 L 0.671875 -6.046875 L 1.296875 -6.046875 Z M 1.296875 0 "/></g></g></g><g fill="#4f4135" fill-opacity="1"><g transform="translate(134.485838, 160.356403)"><g><path d="M 0.171875 -5.484375 L 0.171875 -6.0625 L 3.734375 -6.0625 L 3.734375 -5.484375 L 2.265625 -5.484375 L 2.265625 -0.015625 L 1.640625 -0.015625 L 1.640625 -5.484375 Z M 0.171875 -5.484375 "/></g></g></g><g fill="#4f4135" fill-opacity="1"><g transform="translate(142.492313, 160.356403)"><g><path d="M 6 -3.046875 C 6 -3.722656 5.753906 -4.304688 5.265625 -4.796875 C 4.773438 -5.273438 4.1875 -5.515625 3.5 -5.515625 C 2.820312 -5.515625 2.238281 -5.273438 1.75 -4.796875 C 1.257812 -4.304688 1.015625 -3.722656 1.015625 -3.046875 C 1.015625 -2.359375 1.257812 -1.769531 1.75 -1.28125 C 2.238281 -0.789062 2.820312 -0.546875 3.5 -0.546875 C 4.1875 -0.546875 4.773438 -0.789062 5.265625 -1.28125 C 5.753906 -1.769531 6 -2.359375 6 -3.046875 Z M 6.609375 -3.046875 C 6.609375 -2.617188 6.53125 -2.210938 6.375 -1.828125 C 6.207031 -1.453125 5.984375 -1.125 5.703125 -0.84375 C 5.421875 -0.5625 5.09375 -0.335938 4.71875 -0.171875 C 4.332031 -0.00390625 3.925781 0.078125 3.5 0.078125 C 3.070312 0.078125 2.671875 -0.00390625 2.296875 -0.171875 C 1.921875 -0.335938 1.59375 -0.5625 1.3125 -0.84375 C 1.03125 -1.125 0.8125 -1.453125 0.65625 -1.828125 C 0.488281 -2.210938 0.40625 -2.617188 0.40625 -3.046875 C 0.40625 -3.472656 0.488281 -3.875 0.65625 -4.25 C 0.8125 -4.625 1.03125 -4.953125 1.3125 -5.234375 C 1.59375 -5.515625 1.921875 -5.738281 2.296875 -5.90625 C 2.671875 -6.0625 3.070312 -6.140625 3.5 -6.140625 C 3.925781 -6.140625 4.332031 -6.0625 4.71875 -5.90625 C 5.09375 -5.738281 5.421875 -5.515625 5.703125 -5.234375 C 5.984375 -4.953125 6.207031 -4.625 6.375 -4.25 C 6.53125 -3.875 6.609375 -3.472656 6.609375 -3.046875 Z M 6.609375 -3.046875 "/></g></g></g><g fill="#4f4135" fill-opacity="1"><g transform="translate(153.603522, 160.356403)"><g/></g></g><g fill="#4f4135" fill-opacity="1"><g transform="translate(160.097653, 160.356403)"><g><path d="M 5.359375 -3.015625 C 5.359375 -2.578125 5.28125 -2.175781 5.125 -1.8125 C 4.957031 -1.4375 4.734375 -1.117188 4.453125 -0.859375 C 4.171875 -0.585938 3.84375 -0.378906 3.46875 -0.234375 C 3.082031 -0.078125 2.675781 0 2.25 0 L 0.671875 0 L 0.671875 -6.046875 L 2.25 -6.046875 C 2.675781 -6.046875 3.082031 -5.972656 3.46875 -5.828125 C 3.84375 -5.671875 4.171875 -5.457031 4.453125 -5.1875 C 4.734375 -4.925781 4.957031 -4.609375 5.125 -4.234375 C 5.28125 -3.867188 5.359375 -3.460938 5.359375 -3.015625 Z M 4.75 -3.015625 C 4.75 -3.703125 4.507812 -4.28125 4.03125 -4.75 C 3.550781 -5.195312 2.960938 -5.421875 2.265625 -5.421875 L 1.296875 -5.421875 L 1.296875 -0.625 L 2.265625 -0.625 C 2.960938 -0.625 3.550781 -0.847656 4.03125 -1.296875 C 4.507812 -1.753906 4.75 -2.328125 4.75 -3.015625 Z M 4.75 -3.015625 "/></g></g></g><g fill="#4f4135" fill-opacity="1"><g transform="translate(169.954518, 160.356403)"><g><path d="M 4.265625 0 L 0.671875 0 L 0.671875 -6.046875 L 4.265625 -6.046875 L 4.265625 -5.46875 L 1.296875 -5.46875 L 1.296875 -3.3125 L 4.171875 -3.3125 L 4.171875 -2.734375 L 1.296875 -2.734375 L 1.296875 -0.578125 L 4.265625 -0.578125 Z M 4.265625 0 "/></g></g></g><g fill="#4f4135" fill-opacity="1"><g transform="translate(77.3583, 172.217794)"><g><path d="M 6.21875 -1.84375 C 5.988281 -1.269531 5.617188 -0.804688 5.109375 -0.453125 C 4.597656 -0.0859375 4.03125 0.09375 3.40625 0.09375 C 2.570312 0.09375 1.859375 -0.210938 1.265625 -0.828125 C 0.691406 -1.441406 0.40625 -2.171875 0.40625 -3.015625 C 0.40625 -3.429688 0.476562 -3.832031 0.625 -4.21875 C 0.78125 -4.59375 0.992188 -4.921875 1.265625 -5.203125 C 1.859375 -5.816406 2.570312 -6.125 3.40625 -6.125 C 4.03125 -6.125 4.597656 -5.945312 5.109375 -5.59375 C 5.617188 -5.238281 5.984375 -4.773438 6.203125 -4.203125 L 5.515625 -4.203125 C 5.191406 -4.804688 4.707031 -5.203125 4.0625 -5.390625 C 3.851562 -5.453125 3.609375 -5.484375 3.328125 -5.484375 C 3.046875 -5.484375 2.757812 -5.421875 2.46875 -5.296875 C 2.175781 -5.148438 1.925781 -4.96875 1.71875 -4.75 C 1.25 -4.269531 1.015625 -3.691406 1.015625 -3.015625 C 1.015625 -2.347656 1.25 -1.773438 1.71875 -1.296875 C 2.1875 -0.796875 2.75 -0.546875 3.40625 -0.546875 C 3.863281 -0.546875 4.28125 -0.664062 4.65625 -0.90625 C 5.03125 -1.144531 5.320312 -1.457031 5.53125 -1.84375 Z M 6.21875 -1.84375 "/></g></g></g><g fill="#4f4135" fill-opacity="1"><g transform="translate(87.935742, 172.217794)"><g><path d="M 6 -3.046875 C 6 -3.722656 5.753906 -4.304688 5.265625 -4.796875 C 4.773438 -5.273438 4.1875 -5.515625 3.5 -5.515625 C 2.820312 -5.515625 2.238281 -5.273438 1.75 -4.796875 C 1.257812 -4.304688 1.015625 -3.722656 1.015625 -3.046875 C 1.015625 -2.359375 1.257812 -1.769531 1.75 -1.28125 C 2.238281 -0.789062 2.820312 -0.546875 3.5 -0.546875 C 4.1875 -0.546875 4.773438 -0.789062 5.265625 -1.28125 C 5.753906 -1.769531 6 -2.359375 6 -3.046875 Z M 6.609375 -3.046875 C 6.609375 -2.617188 6.53125 -2.210938 6.375 -1.828125 C 6.207031 -1.453125 5.984375 -1.125 5.703125 -0.84375 C 5.421875 -0.5625 5.09375 -0.335938 4.71875 -0.171875 C 4.332031 -0.00390625 3.925781 0.078125 3.5 0.078125 C 3.070312 0.078125 2.671875 -0.00390625 2.296875 -0.171875 C 1.921875 -0.335938 1.59375 -0.5625 1.3125 -0.84375 C 1.03125 -1.125 0.8125 -1.453125 0.65625 -1.828125 C 0.488281 -2.210938 0.40625 -2.617188 0.40625 -3.046875 C 0.40625 -3.472656 0.488281 -3.875 0.65625 -4.25 C 0.8125 -4.625 1.03125 -4.953125 1.3125 -5.234375 C 1.59375 -5.515625 1.921875 -5.738281 2.296875 -5.90625 C 2.671875 -6.0625 3.070312 -6.140625 3.5 -6.140625 C 3.925781 -6.140625 4.332031 -6.0625 4.71875 -5.90625 C 5.09375 -5.738281 5.421875 -5.515625 5.703125 -5.234375 C 5.984375 -4.953125 6.207031 -4.625 6.375 -4.25 C 6.53125 -3.875 6.609375 -3.472656 6.609375 -3.046875 Z M 6.609375 -3.046875 "/></g></g></g><g fill="#4f4135" fill-opacity="1"><g transform="translate(99.046948, 172.217794)"><g><path d="M 1.296875 -4.453125 L 1.296875 0 L 0.671875 0 L 0.671875 -6.421875 L 4.0625 -1.59375 L 4.0625 -6.046875 L 4.6875 -6.046875 L 4.6875 0.375 Z M 1.296875 -4.453125 "/></g></g></g><g fill="#4f4135" fill-opacity="1"><g transform="translate(108.49458, 172.217794)"><g><path d="M 2.34375 -2.859375 C 1.113281 -3.140625 0.5 -3.664062 0.5 -4.4375 C 0.5 -5.007812 0.695312 -5.4375 1.09375 -5.71875 C 1.488281 -6 1.953125 -6.140625 2.484375 -6.140625 C 3.671875 -6.140625 4.375 -5.695312 4.59375 -4.8125 L 3.90625 -4.8125 C 3.789062 -5.332031 3.316406 -5.59375 2.484375 -5.59375 C 1.910156 -5.59375 1.503906 -5.421875 1.265625 -5.078125 C 1.179688 -4.953125 1.140625 -4.789062 1.140625 -4.59375 C 1.140625 -4.21875 1.34375 -3.929688 1.75 -3.734375 C 1.9375 -3.628906 2.335938 -3.5 2.953125 -3.34375 C 3.566406 -3.1875 4.015625 -3.007812 4.296875 -2.8125 C 4.679688 -2.539062 4.875 -2.15625 4.875 -1.65625 C 4.875 -1.050781 4.632812 -0.59375 4.15625 -0.28125 C 3.75 -0.0195312 3.25 0.109375 2.65625 0.109375 C 1.320312 0.109375 0.546875 -0.394531 0.328125 -1.40625 L 1.0625 -1.40625 C 1.175781 -0.769531 1.707031 -0.453125 2.65625 -0.453125 C 3.332031 -0.453125 3.804688 -0.640625 4.078125 -1.015625 C 4.179688 -1.160156 4.234375 -1.363281 4.234375 -1.625 C 4.234375 -1.863281 4.132812 -2.066406 3.9375 -2.234375 C 3.65625 -2.453125 3.125 -2.660156 2.34375 -2.859375 Z M 2.34375 -2.859375 "/></g></g></g><g fill="#4f4135" fill-opacity="1"><g transform="translate(117.693124, 172.217794)"><g><path d="M 0.171875 -5.484375 L 0.171875 -6.0625 L 3.734375 -6.0625 L 3.734375 -5.484375 L 2.265625 -5.484375 L 2.265625 -0.015625 L 1.640625 -0.015625 L 1.640625 -5.484375 Z M 0.171875 -5.484375 "/></g></g></g><g fill="#4f4135" fill-opacity="1"><g transform="translate(125.699599, 172.217794)"><g><path d="M 1.296875 -2.984375 L 2.6875 -2.984375 C 3.039062 -2.984375 3.332031 -3.101562 3.5625 -3.34375 C 3.789062 -3.582031 3.90625 -3.878906 3.90625 -4.234375 C 3.90625 -4.585938 3.796875 -4.878906 3.578125 -5.109375 C 3.359375 -5.335938 3.0625 -5.453125 2.6875 -5.453125 L 1.296875 -5.453125 Z M 4.53125 -4.21875 C 4.53125 -3.695312 4.34375 -3.257812 3.96875 -2.90625 C 3.632812 -2.59375 3.234375 -2.425781 2.765625 -2.40625 L 4.625 0 L 3.78125 0 L 2.015625 -2.390625 L 1.296875 -2.390625 L 1.296875 0 L 0.671875 0 L 0.671875 -6.046875 L 2.609375 -6.046875 C 3.140625 -6.046875 3.59375 -5.875 3.96875 -5.53125 C 4.34375 -5.175781 4.53125 -4.738281 4.53125 -4.21875 Z M 4.53125 -4.21875 "/></g></g></g><g fill="#4f4135" fill-opacity="1"><g transform="translate(134.631264, 172.217794)"><g><path d="M 5.046875 -2 C 5.046875 -1.34375 4.832031 -0.828125 4.40625 -0.453125 C 4 -0.0976562 3.460938 0.078125 2.796875 0.078125 C 2.117188 0.078125 1.578125 -0.0976562 1.171875 -0.453125 C 0.742188 -0.828125 0.53125 -1.34375 0.53125 -2 L 0.53125 -6.046875 L 1.15625 -6.046875 L 1.15625 -1.90625 C 1.15625 -1.457031 1.320312 -1.109375 1.65625 -0.859375 C 1.9375 -0.648438 2.316406 -0.546875 2.796875 -0.546875 C 3.535156 -0.546875 4.03125 -0.796875 4.28125 -1.296875 C 4.375 -1.460938 4.421875 -1.664062 4.421875 -1.90625 L 4.421875 -6.046875 L 5.046875 -6.046875 Z M 5.046875 -2 "/></g></g></g><g fill="#4f4135" fill-opacity="1"><g transform="translate(144.301302, 172.217794)"><g><path d="M 6.21875 -1.84375 C 5.988281 -1.269531 5.617188 -0.804688 5.109375 -0.453125 C 4.617188 -0.109375 4.082031 0.0703125 3.5 0.09375 L 3.34375 0.40625 C 3.351562 0.40625 3.429688 0.40625 3.578125 0.40625 C 3.710938 0.40625 3.835938 0.4375 3.953125 0.5 C 4.054688 0.570312 4.144531 0.664062 4.21875 0.78125 C 4.363281 1.050781 4.375 1.335938 4.25 1.640625 C 4.113281 1.960938 3.828125 2.15625 3.390625 2.21875 C 2.984375 2.269531 2.570312 2.210938 2.15625 2.046875 L 2.375 1.59375 C 2.707031 1.707031 3.023438 1.75 3.328125 1.71875 C 3.640625 1.6875 3.804688 1.578125 3.828125 1.390625 C 3.878906 1.078125 3.738281 0.894531 3.40625 0.84375 C 3.289062 0.820312 3.160156 0.828125 3.015625 0.859375 C 2.878906 0.878906 2.753906 0.898438 2.640625 0.921875 L 3.015625 0.0625 C 2.347656 -0.0078125 1.765625 -0.304688 1.265625 -0.828125 C 0.691406 -1.441406 0.40625 -2.171875 0.40625 -3.015625 C 0.40625 -3.429688 0.476562 -3.832031 0.625 -4.21875 C 0.78125 -4.59375 0.992188 -4.921875 1.265625 -5.203125 C 1.859375 -5.816406 2.570312 -6.125 3.40625 -6.125 C 4.03125 -6.125 4.597656 -5.945312 5.109375 -5.59375 C 5.617188 -5.238281 5.984375 -4.773438 6.203125 -4.203125 L 5.515625 -4.203125 C 5.191406 -4.804688 4.707031 -5.203125 4.0625 -5.390625 C 3.851562 -5.453125 3.609375 -5.484375 3.328125 -5.484375 C 3.046875 -5.484375 2.757812 -5.421875 2.46875 -5.296875 C 2.175781 -5.148438 1.925781 -4.96875 1.71875 -4.75 C 1.25 -4.269531 1.015625 -3.691406 1.015625 -3.015625 C 1.015625 -2.347656 1.25 -1.773438 1.71875 -1.296875 C 2.1875 -0.796875 2.75 -0.546875 3.40625 -0.546875 C 3.863281 -0.546875 4.28125 -0.664062 4.65625 -0.90625 C 5.03125 -1.144531 5.320312 -1.457031 5.53125 -1.84375 Z M 6.21875 -1.84375 "/></g></g></g><g fill="#4f4135" fill-opacity="1"><g transform="translate(154.878747, 172.217794)"><g><path d="M 1.640625 -2.21875 L 3.84375 -2.21875 L 2.75 -5 Z M 5.390625 0 L 4.71875 0 L 4.078125 -1.640625 L 1.40625 -1.640625 L 0.765625 0 L 0.09375 0 L 2.75 -6.46875 Z M 1.28125 -6.671875 C 1.269531 -7.066406 1.382812 -7.375 1.625 -7.59375 C 1.738281 -7.707031 1.90625 -7.765625 2.125 -7.765625 C 2.34375 -7.765625 2.503906 -7.726562 2.609375 -7.65625 C 2.722656 -7.582031 2.816406 -7.503906 2.890625 -7.421875 C 2.960938 -7.328125 3.035156 -7.242188 3.109375 -7.171875 C 3.171875 -7.097656 3.253906 -7.0625 3.359375 -7.0625 C 3.460938 -7.0625 3.539062 -7.078125 3.59375 -7.109375 C 3.65625 -7.128906 3.695312 -7.171875 3.71875 -7.234375 C 3.75 -7.296875 3.765625 -7.441406 3.765625 -7.671875 L 4.203125 -7.671875 C 4.242188 -7.273438 4.144531 -6.960938 3.90625 -6.734375 C 3.78125 -6.617188 3.601562 -6.5625 3.375 -6.5625 C 3.144531 -6.5625 2.976562 -6.597656 2.875 -6.671875 C 2.769531 -6.742188 2.679688 -6.828125 2.609375 -6.921875 C 2.523438 -7.015625 2.445312 -7.097656 2.375 -7.171875 C 2.3125 -7.242188 2.21875 -7.28125 2.09375 -7.28125 C 1.90625 -7.28125 1.785156 -7.175781 1.734375 -6.96875 C 1.710938 -6.882812 1.707031 -6.785156 1.71875 -6.671875 Z M 1.28125 -6.671875 "/></g></g></g><g fill="#4f4135" fill-opacity="1"><g transform="translate(164.459828, 172.217794)"><g><path d="M 6 -3.046875 C 6 -3.722656 5.753906 -4.304688 5.265625 -4.796875 C 4.773438 -5.273438 4.1875 -5.515625 3.5 -5.515625 C 2.820312 -5.515625 2.238281 -5.273438 1.75 -4.796875 C 1.257812 -4.304688 1.015625 -3.722656 1.015625 -3.046875 C 1.015625 -2.359375 1.257812 -1.769531 1.75 -1.28125 C 2.238281 -0.789062 2.820312 -0.546875 3.5 -0.546875 C 4.1875 -0.546875 4.773438 -0.789062 5.265625 -1.28125 C 5.753906 -1.769531 6 -2.359375 6 -3.046875 Z M 6.609375 -3.046875 C 6.609375 -2.617188 6.53125 -2.210938 6.375 -1.828125 C 6.207031 -1.453125 5.984375 -1.125 5.703125 -0.84375 C 5.421875 -0.5625 5.09375 -0.335938 4.71875 -0.171875 C 4.332031 -0.00390625 3.925781 0.078125 3.5 0.078125 C 3.070312 0.078125 2.671875 -0.00390625 2.296875 -0.171875 C 1.921875 -0.335938 1.59375 -0.5625 1.3125 -0.84375 C 1.03125 -1.125 0.8125 -1.453125 0.65625 -1.828125 C 0.488281 -2.210938 0.40625 -2.617188 0.40625 -3.046875 C 0.40625 -3.472656 0.488281 -3.875 0.65625 -4.25 C 0.8125 -4.625 1.03125 -4.953125 1.3125 -5.234375 C 1.59375 -5.515625 1.921875 -5.738281 2.296875 -5.90625 C 2.671875 -6.0625 3.070312 -6.140625 3.5 -6.140625 C 3.925781 -6.140625 4.332031 -6.0625 4.71875 -5.90625 C 5.09375 -5.738281 5.421875 -5.515625 5.703125 -5.234375 C 5.984375 -4.953125 6.207031 -4.625 6.375 -4.25 C 6.53125 -3.875 6.609375 -3.472656 6.609375 -3.046875 Z M 6.609375 -3.046875 "/></g></g></g><g clip-path="url(#d16f55e2b9)"><path stroke-linecap="butt" transform="matrix(0.628848, 0, 0, 0.628848, 45.353895, 0.0159131)" fill="none" stroke-linejoin="miter" d="M 0.00250249 -0.000458111 L 35.658001 -0.000458111 L 35.658001 149.951411 L 0.00250249 149.951411 Z M 0.00250249 -0.000458111 " stroke="#000000" stroke-width="4.763931" stroke-opacity="1" stroke-miterlimit="4"/></g><g clip-path="url(#63d7982eb5)"><path stroke-linecap="butt" transform="matrix(0.628848, 0, 0, 0.628848, 55.415455, 44.051156)" fill="none" stroke-linejoin="miter" d="M -0.00221382 -0.000595797 L 47.73516 -0.000595797 L 47.73516 79.932329 L -0.00221382 79.932329 Z M -0.00221382 -0.000595797 " stroke="#000000" stroke-width="4.763931" stroke-opacity="1" stroke-miterlimit="4"/></g><g clip-path="url(#75d6a84ebe)"><path stroke-linecap="butt" transform="matrix(0.628848, 0, 0, 0.628848, 74.225223, 26.328573)" fill="none" stroke-linejoin="miter" d="M 0.00212936 -0.000712958 L 62.231534 -0.000712958 L 62.231534 108.127381 L 0.00212936 108.127381 Z M 0.00212936 -0.000712958 " stroke="#000000" stroke-width="4.763931" stroke-opacity="1" stroke-miterlimit="4"/></g><g clip-path="url(#dca33df5e4)"><path stroke-linecap="butt" transform="matrix(0.628848, 0, 0, 0.628848, 93.794386, 62.353867)" fill="none" stroke-linejoin="miter" d="M -0.00225336 0.00254633 L 126.643105 0.00254633 L 126.643105 50.839588 L -0.00225336 50.839588 Z M -0.00225336 0.00254633 " stroke="#000000" stroke-width="4.763931" stroke-opacity="1" stroke-miterlimit="4"/></g><g clip-path="url(#b2f1b43687)"><path stroke-linecap="butt" transform="matrix(0.628848, 0, 0, 0.628848, 126.4408, 47.164931)" fill="none" stroke-linejoin="miter" d="M 0.000963288 -0.00138075 L 106.514 -0.00138075 L 106.514 74.993189 L 0.000963288 74.993189 Z M 0.000963288 -0.00138075 " stroke="#000000" stroke-width="4.763931" stroke-opacity="1" stroke-miterlimit="4"/></g><g clip-path="url(#c587ddc9f8)"><path stroke-linecap="butt" transform="matrix(0.628848, 0, 0, 0.628848, 136.502372, 78.340345)" fill="none" stroke-linejoin="miter" d="M 0.00243969 -0.000796882 L 106.515476 -0.000796882 L 106.515476 25.423934 L 0.00243969 25.423934 Z M 0.00243969 -0.000796882 " stroke="#000000" stroke-width="4.763931" stroke-opacity="1" stroke-miterlimit="4"/></g></svg>